<svg version="1.0" xmlns="http://www.w3.org/2000/svg" width="3669.333" height="3669.333" viewBox="0 0 2752 2752"><path d="M563 1087.9c0 .3-2.4.7-5.4.7-17.6.4-35 13.8-40.6 31.3-2.3 7.3-3.1 20.1-1.5 26.1.3 1.4.8 3.4 1 4.5.8 3.7 5.5 12.5 6.7 12.5.6 0 .8.3.5.6-1.6 1.7 13.6 14 18.3 14.9 1 .2 2.8.8 3.8 1.4 7.1 3.8 33 3.4 43.2-.6.8-.4 1.7-.7 2-.7.3-.1 3-1.8 6-3.7 14.7-9.5 22.1-25.4 20.6-43.9-1.9-22.7-18-39.2-41.6-42.5-2.4-.4-4.9-.9-5.4-1.2-.5-.4-.6-.1-.1.7.5.8.4 1.1-.3.6-1.5-.9-7.2-1.5-7.2-.7zm1649.8 13.9l-45.8.2-.1 2.3c0 1.2 0 89.2-.1 195.4 0 106.3-.2 193.3-.4 193.3s-1.6-2.1-3.1-4.8c-1.5-2.6-3-4.9-3.3-5.2-.7-.7-2.9-4.2-3.7-6-.4-.8-.9-1.7-1.2-2-.3-.3-1.1-1.4-1.8-2.5-.6-1.1-4.1-6.7-7.8-12.5-3.6-5.8-7.2-11.4-7.8-12.5-.7-1.1-2.9-4.5-4.9-7.7-2.1-3.1-3.8-6.1-3.8-6.6 0-.4-.8-1.7-1.8-2.8-1-1-2.1-2.6-2.5-3.4-.4-.8-1.6-2.9-2.7-4.5-1.1-1.7-2.7-4.4-3.6-6-.9-1.7-2-3.2-2.3-3.5-.3-.3-1.5-2.2-2.6-4.3-1.1-2-2.3-3.7-2.7-3.7-.5 0-.8-.6-.8-1.3 0-.7-.8-2.2-1.8-3.3-.9-1-2.3-3-2.9-4.4-.7-1.4-3.2-5.5-5.5-9.2-2.4-3.7-6.8-10.6-9.8-15.5-3-4.8-5.8-8.9-6.2-9.1-.4-.2-.8-.8-.8-1.3 0-.6-1.8-3.7-4-7s-4-6.2-4-6.4c0-.2-4.8-7.9-10.6-17.2-5.9-9.2-11.7-18.4-12.9-20.3-1.2-1.9-5.4-8.6-9.3-14.8-4-6.2-7.2-11.8-7.2-12.3s-.4-.9-1-.9c-.5 0-1-.7-1-1.5s-.4-1.5-1-1.5c-.5 0-1-.7-1-1.5s-.4-1.5-.8-1.5-1.3-1.2-1.9-2.8c-1.2-2.7-3.3-6.3-4.3-7.2-.9-.8-20.4-32.3-21.1-34-.4-.9-1.4-2.2-2.3-2.9-.9-.7-1.6-1.9-1.6-2.5 0-.7-.7-2.1-1.5-3.1-2.7-3.3-24.5-38.7-24.5-39.6 0-.5-.4-.9-1-.9-.5 0-1-.7-1-1.5s-.4-1.5-1-1.5c-.5 0-1-.7-1-1.5s-.4-1.5-.9-1.5-1.1-.8-1.4-1.8c-.7-2.2-3.7-7.1-5.9-9.6-1-1.1-1.8-2.3-1.8-2.7 0-.8-19.2-31.6-21-33.6-.5-.7-1-1.4-1-1.7 0-.6-12.5-20.6-14-22.3-.5-.7-1-1.7-1-2.3 0-.7-15.2-1-47.5-1H1827v545.8l2.5.4c1.4.3 2.8.1 3.1-.3.3-.5 1.2-.5 2.2 0 .9.5 2.6.5 3.9 0 1.2-.4 2.5-.4 2.8 0 .3.5 2.1.5 4 .1s3.5-.5 3.5-.1c0 .3 1.6.6 3.5.6s3.5-.3 3.5-.7c0-.4 1-.4 2.2.1 1.3.4 3.5.5 5 0 1.6-.4 2.8-.5 2.8-.1s2.7.7 6 .7 6-.3 6-.6c0-.4 1.5-.4 3.3.1 1.8.4 4.2.4 5.2 0 1.1-.4 2.9-.4 4 0s3.2.4 4.8-.1c1.5-.4 2.7-.5 2.7-.1s2.7.7 6 .7 6-.3 6-.6c0-.4 1.5-.4 3.3 0 5.4 1.1 7.7.3 7.7-2.7.1-1.5.1-89.2.1-195 0-105.7.2-192.2.3-192.2.4 0 3 4 16.9 26.3 4.8 7.6 8.7 14 8.7 14.3 0 .3.5 1 1 1.7 1.6 1.9 11 16.7 11 17.3 0 .3 1.1 2 2.5 3.8 1.4 1.8 2.2 3.6 1.8 3.9-.3.4-.1.7.6.7s1.9 1.6 2.7 3.5c.8 1.9 1.9 3.5 2.4 3.5.6 0 1 .5 1 1.1 0 1.1 11.6 20 15.2 24.8 1 1.3 1.5 2.7 1.2 3.2-.3.5 0 .9.6.9.5 0 1.8 1.6 2.7 3.5.9 1.9 2 3.5 2.5 3.5.4 0 .8.4.8.9 0 .6 2.7 5.2 6 10.3 3.3 5.1 6.6 10.4 7.2 11.8.7 1.4 1.5 2.7 1.8 3 .3.3 1.7 2.3 3 4.5s2.6 4.2 2.9 4.5c1 .9 4.2 6.4 4.8 8.2.3 1 .9 1.8 1.4 1.8.5 0 .9.7.9 1.5s.5 1.5 1 1.5c.6 0 1 .6 1 1.3 0 .8.9 2.2 2 3.2s2 2.3 2 2.8c0 .6 2.7 5.2 6 10.4 3.3 5.1 6 9.6 6 9.8 0 .3.5 1.1 1 1.8 1.8 2 11.1 16.7 12.2 19.3.6 1.3 1.5 2.4 2 2.4s.6.4.3 1c-.3.5-.3 1 .2 1 .4 0 2.8 3.4 5.2 7.5 2.4 4.1 5 8 5.7 8.6.8.6 1.4 1.7 1.4 2.4s.9 2.3 1.9 3.6c1 1.4 2.7 3.9 3.7 5.6 1.1 1.8 6 9.7 10.9 17.5 5 7.8 9.3 14.9 9.8 15.8.4.8 2 3.4 3.5 5.7 7.4 11.7 18.8 29.5 19.7 31.1 4.2 7.2 7.1 11.9 7.8 12.7 1.9 2.4 8.7 13.5 8.7 14.3 0 .5.9 1.7 2 2.7 1.1 1 2 2.2 2 2.6 0 .5 1.7 3.5 3.7 6.6 5.6 8.6 6.2 9.6 6.9 11.5.3 1 1 1.8 1.4 1.8.4 0 1 .8 1.4 1.7.3 1 3.9 7 7.9 13.3 6.3 9.8 7.8 11.5 10.6 12.1 1.7.4 3.3.3 3.6-.1.4-.7 6.4-.4 7.2.4.3.2 1.8 0 3.4-.4 1.6-.5 2.9-.6 2.9-.2 0 .4 2.7.7 6 .7s6-.3 6-.6c0-.4 1.5-.4 3.3.1 1.8.4 4.2.4 5.2 0 1.1-.4 2.9-.4 4 0s3.2.4 4.8-.1c1.5-.4 2.7-.5 2.7-.1s2.7.7 6 .7 6-.3 6-.6c0-.4 1.5-.4 3.3.1 1.8.4 4.2.4 5.2 0 1.1-.4 2.9-.4 4 0s3.2.4 4.8-.1c1.5-.4 2.7-.4 2.7 0 0 .7 9 .5 9.7-.3.9-.9 1-4.2.1-5.9-.5-.9-.5-1.7-.1-1.7.7 0 .9-14.5.3-17.5-.1-.6-.1-1.5 0-2 .3-1.2.2-25.7-.1-26.5-.1-.3 0-1 .1-1.5.2-1.2.2-61.8-.1-62.5-.1-.3 0-1 .1-1.5.2-1.2.2-64.6 0-66-.1-.6-.1-1.5 0-2 .3-1.2.2-92.5-.1-94-.1-.6 0-1.5.1-2 .3-1.2.2-25.7-.1-26.5-.1-.3 0-1 .1-1.5.2-1.2.2-61.8-.1-62.5-.1-.3 0-1 .1-1.5.2-1.2.2-64.6 0-66-.1-.6-.1-1.5 0-2 .7-3 .1-101.8-.6-102.3-.5-.4-21.5-.6-46.6-.4zm-2195.9 2.9c0 2.8 0 70.2.1 71.5 0 .5 38.2.8 84.9.8h84.9v235c0 129.3.2 235.3.5 235.7.8.7 9.1.8 10.3 0 .6-.3 1.6-.2 2.3.3.8.4 2.7.4 4.2 0 2-.6 2.9-.5 2.9.3 0 .9.2.9.8.1.4-.7 1.5-.8 2.7-.4 1.1.4 3.2.4 4.8-.1 1.5-.4 2.7-.5 2.7-.1s6.3.7 14 .7 14-.3 14-.7c0-.4 1.3-.3 2.9.2 1.5.4 3.4.4 4.1 0 1.2-.7 5.9-.4 6.8.5.2.2 1.7-.1 3.3-.5 1.6-.5 2.9-.6 2.9-.2 0 .4 1.4.7 3 .7 1.7 0 3-.3 3-.7 0-.4 1.3-.3 2.9.2 1.5.4 3.4.4 4.1 0 1-.6 1.3-47.6 1.2-235.9V1177h85.1c46.8 0 85.3-.3 85.6-.6.3-.3.6-17.2.6-37.5V1102H17l-.1 2.7zm837.9 129.8c-.2.2-4.5.5-9.6.7-5 .2-9.2.5-9.2.8 0 .3-1.2.6-2.7.7-8.9.5-29.3 5.7-36.1 9.2-.9.5-5.5 2.8-10.2 5.1-13.5 6.8-24.9 15.1-37.2 27.2-2.1 2.1-3.8 4-3.8 4.3 0 .2-1 1.5-2.2 2.9-5.4 5.9-6.5 7.3-8.3 10.4-1.1 1.7-2.3 3.2-2.6 3.2-.4 0-1.1.9-1.4 2-.3 1.1-1.2 2.6-1.8 3.2-4.4 4.8-18.2 34.1-21.7 46.3-4.6 15.7-7.9 29.2-7.5 30.2.2.7.1 1.3-.3 1.3-.5 0-.8 1-.9 2.2-.1 1.3-.3 3.2-.6 4.4-1 4.2-2.1 13.6-3.3 28.9-1.2 14.6-.7 65.5.6 65.5.3 0 .6 1.8.7 4 .2 2.2.5 5.2.8 6.8.4 1.5.8 4.5 1.1 6.7.2 2.1.6 4.8.9 6 .2 1.1 1.2 5.1 2 9 1.8 8 5.2 20.1 6.5 23 .5 1.1 1.4 3.8 2.1 6 2.2 7.4 14.6 33.7 16.1 34.3.4.2.8.8.8 1.4 0 1.6 12.5 19.3 17.3 24.5 5.8 6.2 15.7 16.2 15.7 15.7 0-.3 1.6 1 3.5 2.7 1.9 1.8 6.8 5.4 10.8 8 3.9 2.7 7.7 5.2 8.2 5.7.6.4 1.3.9 1.7 1 2 .6 12.4 5.8 12.9 6.5.3.5.8.8 1 .7.5-.2 1.5.1 9.4 2.8 28.9 9.8 66.5 10.2 95.3 1 3.7-1.2 6.9-2.2 7.2-2.3.3-.1 2.2-.9 4.4-1.8 2.1-.9 4.2-1.7 4.7-1.7s.9-.5.9-1.1c0-.5.5-.7 1-.4.6.3 1 .1 1-.6s.3-1 .6-.6c.7.6 10.8-5.4 18.9-11.4 2.8-2 8.3-6.8 12.2-10.8 4-3.9 7.5-7.1 7.8-7.1.7 0-.2 43.8-1 48.8-2.3 14.9-8.1 29.8-15.9 41.2-5.2 7.6-19.6 21-22.5 21-.6 0-1.1.5-1.1 1.1 0 .5-.4.7-1 .4-.5-.3-1-.2-1 .3 0 .9-6.9 4.4-8.4 4.2-.5-.1-1.2.3-1.5.8-.3.5-3.5 1.8-7.1 3-5.7 1.8-8.6 2.6-15 3.9-11.8 2.4-35.5 2.1-49.5-.6-10-2-10.8-2.2-12.7-3.2-1-.5-1.8-.7-1.8-.3 0 .3-.6.2-1.2-.4-.7-.6-1.6-1.1-2-1.1-1-.2-3.3-.9-5.5-1.8-1-.3-2.1-.5-2.5-.5-.5.1-.8-.3-.8-.8s-.3-.9-.7-.8c-1.2.4-16.3-7.5-16.3-8.4 0-.4-.6-.8-1.4-.8-.8 0-2.1-.6-2.8-1.3-.7-.7-3.5-3-6.3-5.1-5.1-3.8-17.2-15.2-21.4-20.1l-2.3-2.8-2.4 2.8c-1.3 1.6-2.4 3.1-2.4 3.5 0 .3-1.3 1.9-2.8 3.6-1.5 1.6-4.3 4.9-6.2 7.4-3.5 4.5-5.3 6.7-8 10-.8.9-2.6 3.2-4 5-1.4 1.8-5.7 7.4-9.6 12.3l-7.2 9 2.7 3c9.2 10.8 13.8 15.5 19.6 20.2 2 1.6 4.3 3.5 5 4.2 3.2 3 31.5 19.7 32.7 19.3.2-.1 2.3.8 4.8 1.9 9 3.9 14.8 6 15.4 5.4.3-.4.6-.2.6.4 0 .6 1.2 1.3 2.8 1.6 1.5.3 4.5 1.1 6.7 1.7 2.2.6 10 2.5 17.4 4 11.8 2.6 16.7 3.3 30.1 4.5 1.9.2 3.7.4 4 .5 2.2.6 33.6-.6 38.8-1.4 1.5-.3 4.7-.8 7.2-1.1 6.7-.9 10-1.5 15-2.6 8.9-2.1 11.4-2.7 11.8-2.9.3-.3 1.1-.5 5.5-1.4 2-.5 4-1.2 4.3-1.7.3-.5 1.1-.9 1.9-.9.8 0 2.6-.5 4.2-1.2 1.5-.6 3.3-1.2 3.9-1.3 2.2-.5 21-9.8 26.9-13.3 5.2-3.2 8.2-5.3 18-12.7 2.9-2.3 17.5-16.5 17.5-17.1 0-.3 1.4-1.9 3-3.7 1.7-1.8 3.3-4 3.6-5 .3-.9.9-1.7 1.3-1.7 1 0 10.6-15.6 11.5-18.8.4-1.2 1.2-2.2 1.7-2.2s.9-.8.9-1.8.3-2.2.8-2.6c.4-.4.7-1.1.7-1.4.1-.4.8-2.3 1.7-4.2 4.1-8.6 8.9-26.2 10.4-38 .3-2.4.7-4.7.9-5.1 1.4-2.2 1.8-48.2 1.7-222.4 0-108.4-.1-197.9-.1-199.1-.1-2.1-.2-2.1-41.1-2.1h-41l-.1 2.1c-.1 1.2-.3 3.4-.4 5.1-.8 7.6-1.4 14.7-2 23-.4 4.9-1 9.4-1.4 9.8-.5.4-1.9-.8-3.2-2.7-1.3-1.9-2.7-3.2-3.1-3-.4.3-.8.1-.8-.5s-2.3-3.2-5.2-5.8c-2.8-2.6-6.2-5.8-7.5-7.1-1.3-1.2-2.8-2.2-3.2-2.2-.4 0-1.6-.9-2.6-2s-2.4-2-3.2-2c-.7 0-1.3-.5-1.3-1 0-.6-.6-1-1.4-1-.8 0-1.6-.4-1.8-.8-.6-1.4-16.1-8.9-23.3-11.2-3.8-1.3-7.7-2.6-8.5-2.8-.8-.3-2.2-.7-3-.8-.8-.2-2.2-.5-3-.7-7.2-1.8-12.5-2.5-24.5-3.2-5.5-.3-11.2-.7-12.7-.9-1.5-.2-2.8-.3-3-.1zm26.4 74c.5.6.8.6.8-.1s1.2-1 2.8-.9c1.5.2 5.2.6 8.2.9 8.2.9 10.8 1.4 19.3 4.2 7.8 2.5 18.2 7.7 21.8 10.7 1.1 1 2.2 1.7 2.6 1.7 1.7 0 15.5 15.4 20 22.4l5.1 7.8.1 88.8c.1 93 .2 91.7-4.1 96.4-1 1.1-1.8 2.6-1.8 3.3 0 .7-.4 1.3-.9 1.3s-1.2.8-1.5 1.7c-.8 2.5-12.9 15.3-14.4 15.3-.7 0-1 .4-.7 1 .3.5-.1 1-.9 1-.9 0-1.6.3-1.6.7 0 .8-5.4 4.4-12 8-3.7 2.1-14.7 6-19 6.7-1.4.3-2.5.5-2.5.6 0 .4-4.4 1-9.5 1.5-3 .2-5.5.5-5.5.5 0 .4-16.1.5-16.9.1-.5-.2-3.3-.5-6.4-.8-3-.2-6-.7-6.6-1.1-.6-.5-2.2-.9-3.6-1-1.3-.1-3.4-.5-4.5-1s-4.5-2-7.5-3.3c-6.2-2.7-9.4-4.7-16.6-10.4-4.8-3.8-15.5-15.5-16.3-17.8-.2-.7-.7-1.4-1.1-1.7-2-1.3-12.7-24.1-13.4-28.1-.1-.8-.4-1.9-.8-2.4-.6-1-4.5-16.9-5.2-21.5-.3-1.4-.5-2.5-.6-2.5-.2 0-.9-5.7-1.4-10.8-.2-2.1-.7-4.1-1-4.4-.3-.3-.1-1.2.5-2 .6-.7.8-1.3.3-1.3-1.1 0-1.4-6.3-1.3-27 0-23.8 1.3-37.2 5-53 1.1-4.7 2.2-9.4 2.4-10.5.2-1.1.4-2.1.5-2.3.2-.1.3-.5.4-1 .6-2.7 3-8.9 3.7-9.7.5-.5.9-1.5.9-2.2 0-1.4 6-14.5 7.1-15.3.7-.6 3.3-5.3 3.4-6.1 0-.3.7-1.3 1.5-2.1.8-.9 2.6-3 3.9-4.8 3.7-4.8 10.8-11.5 15.4-14.6 2.3-1.6 5.2-3.7 6.5-4.8 1.2-1.1 2.2-1.6 2.2-1.1 0 .4.8.1 1.8-.8.9-.8 5.3-2.8 9.7-4.2 9.1-3.1 10.4-3.4 16.3-3.9 2.4-.2 4.5-.6 4.8-.8.9-.9 9.9-.3 10.6.7zm444.5-73.9c-.1.1-3.3.5-7.2.8-11.1.9-16 1.7-16.3 2.7-.2.5-.8.7-1.2.4-1.2-.8-12.3 3.2-20.4 7.2-16 8-28.8 19.9-42.1 38.8-3.5 5-3.5 5-3.6 2 0-1.7-.2-5.3-.3-8-.2-2.8-.7-11.7-1.1-20-.3-8.2-.8-15.2-1.1-15.6-.2-.3-19.6-.6-43.1-.5l-42.8.1-.1 202.5c0 126.7.3 202.7.9 203.1.5.4 2.1.3 3.6-.1 1.4-.4 3.5-.4 4.6 0 1.1.4 3 .4 4.2-.1 1.2-.5 2.5-.4 2.8 0 .3.5 2 .5 3.9.1s3.7-.5 4-.2c.8.8 7.6.8 7.6 0 0-.4 1.2-.3 2.8 0 3.1.8 7.5.8 8.8-.1.6-.3 1.6-.2 2.3.3.8.4 2.7.4 4.2 0 2-.6 2.9-.5 2.9.3 0 .9.2.9.8.1.4-.7 1.5-.8 2.7-.4 1.1.4 3.2.4 4.8-.1 1.5-.4 2.7-.5 2.7-.1 0 .8 21.2.6 24.5-.2l2.3-.6v-276.7l2.2-4.4c5-9.8 12.1-18.6 21.7-26.8 5.7-5 25.9-14 34.8-15.7 2.2-.4 8.5-1.3 13-1.9 11.2-1.5 46.3 0 49.7 2.1.3.2 1-.1 1.3-.7.4-.6.9-19.5 1.1-42l.3-40.9-2.2-1.2c-1.2-.6-2.4-1.1-2.7-1-.3.1-1.4-.1-2.5-.3-4.7-1.1-8.4-1.6-14-2.1-3.3-.2-7.7-.6-9.8-.7-2-.2-3.8-.2-4-.1zm234 .1c-.1.1-4.9.4-10.7.7-5.8.3-10.5.6-10.5.7 0 .2-5.4.8-9.7 1.1-2.1.1-3.8.5-3.8.8 0 .3-1.6.6-3.5.7-2 .1-4.1.6-4.9 1.2-.7.6-1.5.8-1.8.5-.8-.7-21.5 5.2-28.8 8.3-.8.3-1.7.7-2 .7-1.8.4-22.6 11.1-22.8 11.8-.2.4-1 .8-1.8.8s-1.4.4-1.4 1c0 .5-.6 1-1.3 1-.7 0-2.2.8-3.3 1.8-1 1-2.7 2.1-3.6 2.5-1 .3-1.8 1.1-1.8 1.7 0 .5-.6 1-1.3 1-.7 0-2 .8-2.9 1.7-.8 1-2.5 2.5-3.6 3.4-9.6 7.1-23.3 23.8-29.3 35.7-1.8 3.7-3.2 7-3.1 7.4.1.5-.3.8-.9.8-.5 0-.7.4-.4 1 .3.5.2 1-.2 1-.5 0-.9.8-1 1.7-.1 1-.7 3.1-1.4 4.8-2.3 5.7-4.5 17.1-4.8 25l-.2 6 44.5-.1c24.5 0 44.8-.2 45-.5.2-.2.7-2.9.9-5.9.3-3 1-6.9 1.5-8.5 1.2-4.1 5.2-11.8 6.4-12.6.5-.3.9-.8.8-1-.4-1.1 1.3-3.8 2.1-3.3.5.3.9 0 .9-.6 0-1 2.6-3.6 9.9-9.9 3-2.6 18.2-10.1 21.3-10.5 1.3-.2 3-.6 3.8-.9.8-.4 2.9-.8 4.5-1.1 1.7-.2 3-.5 3-.6 0-1 26.8-1.5 32-.6 4.8.8 8.5 1.6 14 3.1 10.6 2.7 25.1 13.3 31.8 23.2 3.2 4.6 7.6 14.8 7.7 17.5 0 1 .4 1.8.8 1.8s.8.8.8 1.7c0 1 .4 3.8.9 6.3.4 2.5.8 13.4.9 24.2l.1 19.8-42 .4c-39.2.4-47.8.7-58 2.2-2.2.3-5.6.7-7.5 1-1.9.3-4.6.7-6 .9-1.4.3-3.8.7-5.5 1-4.1.7-5.9 1.1-14 3-3.8.9-7.4 1.8-8 1.9-.5.1-1.4.4-2 .8-.8.4-6.4 2-8.5 2.3-.3 0-.9.3-1.5.6-.5.4-2.8 1.2-5 1.9s-6.7 2.5-10 3.9c-3.3 1.5-7.5 3.4-9.2 4.2-1.8.8-3.3 1.7-3.3 2.1 0 .5-.5.8-1.1.8-1.3 0-13.8 8-18.4 11.8-7.1 5.8-20.3 19.2-18.9 19.2.4 0-.3.8-1.4 1.9-1.2 1-2.2 2.3-2.2 3 0 .6-.3 1.1-.7 1.1-.5 0-1.7 1.8-2.7 4-1.1 2.2-2.3 4-2.8 4-.4 0-.7.3-.6.7.1.5-1 3.3-2.4 6.3-2.9 6.3-7.6 20.6-8.3 25.4-.2 1.7-.7 4.2-.9 5.6-1.6 8.3-2.2 29.7-1.1 37.5.2 1.6.6 4.6.9 6.6.5 4 3.3 15.3 4.6 18.4.5 1.1 1.9 4.2 3.1 7 1.2 2.7 2.3 5.6 2.5 6.4.1.8.9 1.8 1.6 2.2.7.5.9.9.5.9-1 0 8 13.4 12 17.9 1.7 1.8 3.5 3.8 4 4.5 3.7 4.2 15 13.9 21.3 18.1 4.1 2.7 7.7 5.3 7.8 5.8.2.4.8.5 1.3.1.5-.3.9 0 .9.6s.4.9.9.5c.5-.3 1.2-.1 1.6.4.5.8 10.2 5.7 12.3 6.2.4.1 3 1 5.7 2.1 5.9 2.4 18.5 5.8 18.5 5.1 0-.3.7 0 1.5.7s1.5 1 1.5.8c0-.3 2.4-.1 5.3.4 23.5 3.9 50 2.7 70.7-3.3 2.5-.7 4.8-1.3 5.3-1.5.4-.1.9-.3 1.2-.4.3-.1.8-.3 1.3-.5 1.6-.4 5.1-2 13.2-5.8 4.7-2.2 8.8-3.9 9.3-3.9.4.1.7-.3.7-.8 0-.6.7-1 1.5-1s1.5-.3 1.5-.8c0-.4 1.3-1.3 2.8-2 1.6-.6 3.7-2 4.8-3 1.1-1.1 2.5-2.1 3.1-2.3 1.5-.5 11-8.8 17.3-15.1l4.8-4.7.7 4.2c.4 2.3.9 5.1 1 6.2.6 3.8 4.7 18.9 6 22.1.7 1.8 1.2 3.4 1 3.6-.2.2.5 1.4 1.5 2.8 1.1 1.4 2 2 2 1.3 0-.9.7-1 2.2-.4 1.3.4 3.5.5 5 0 1.6-.4 2.8-.4 2.8 0 0 .5 1.8.5 4 .1s4.3-.4 4.5.1c.3.4 1.9.4 3.5-.1 1.7-.5 3-.6 3-.2 0 .4 2.8.6 6.2.4 7.7-.3 7.5-.3 11.8 0 2 .1 4.2-.1 5-.4.8-.3 2.4-.2 3.5.2s3 .4 4.2-.1c1.2-.5 2.5-.4 2.8 0 .3.5 2 .5 3.9.1s3.7-.5 4-.2c.8.7 17.2.5 18.5-.2.5-.3 1.1-.2 1.3.3.2.5 1.3.5 2.6 0 2.8-1 2.9-4.2.3-10.1-2.5-5.9-5.8-15.5-6.7-19.8-1.1-4.7-1.1-5-1.4-5.3-.1-.1-.3-1.1-.5-2.2s-.8-4.7-1.3-8c-1.7-9.8-2.3-15.5-2.8-25.5-.2-5.2-.4-9.5-.5-9.5 0 0-.2-1-.5-2.3-.2-1.3.1-2.2.9-2.2.7 0 .8-.3.2-.8-1.5-1-1.5-42.5-.1-43.4.7-.5.7-.8.1-.8-1.4 0-1.5-23-.1-23 .8 0 .8-.3.1-.8-1.4-1-1.4-23.5-.1-24.4.8-.5.8-.8.1-.8-1.4 0-1.5-14-.1-14 .7 0 .8-.3.1-.8-1.4-1-1.5-22.5-.1-23.4.7-.5.7-.8.1-.8s-1-12.5-1-35.6c0-19.6-.3-35.8-.6-35.9-.3-.2-.5-2.5-.5-5 .1-2.5-.2-4.5-.7-4.5-.4 0-.6-.3-.5-.8.1-.4-.2-3.2-.7-6.2-.8-5.2-.9-6-1.5-7.8-.1-.4-.2-1-.1-1.4 0-.4-.4-2-1.1-3.5-.6-1.5-1.2-3.5-1.3-4.3-.5-4.3-12.1-28-13.6-28-.5 0-.9-.5-.9-1.1 0-1.7-10.4-14.5-16.6-20.4-6.1-5.9-9.9-9-13.6-11.3-1.6-.9-2.8-2-2.8-2.4 0-.4-.4-.8-1-.8-.5 0-3.3-1.5-6.2-3.3-5.7-3.6-22.5-11.1-27.3-12.3-1.6-.4-3.5-1-4-1.5-.6-.4-2.2-1-3.5-1.2-1.4-.3-5.2-1.2-8.5-2.1-3.3-.8-8-1.8-10.4-2.1-2.3-.3-4.7-.8-5.2-1.1-.5-.3-3.7-.7-7.1-.9-3.5-.2-6.3-.5-6.3-.5 0-.5-29.4-1.8-29.8-1.3zm72.9 261.1l-.1 38.7-4.7 7c-5.1 7.6-8.7 11.6-16.2 18.2-4.8 4.3-19.3 13.9-20.5 13.6-.3-.1-1.4.6-2.3 1.4-1 .9-1.8 1.3-1.8.8 0-.4-.6-.3-1.2.2-1.8 1.4-13.7 5.2-17 5.5-1.6.1-2.8.5-2.8.9s-1.4.5-3 .4c-1.7-.1-3.2.1-3.5.5-.3.5-1.4.6-2.4.3s-2.8 0-4 .6c-1.2.7-2.1.8-2.1.4s-1.6-.8-3.5-.8-3.5.4-3.5.8c0 .5-.5.5-1.2.1s-3-.8-5.2-1c-6.6-.3-13.8-1.4-15.8-2.5-1-.5-1.8-.7-1.8-.3 0 .3-.7.1-1.5-.6s-1.5-.9-1.5-.6c0 .4-1.2.1-2.7-.7-1.6-.8-4.6-2.3-6.7-3.3-6.7-3.2-17.1-14.1-20.9-21.9-8.7-17.4-8.4-41.4.6-57.5 4.8-8.6 13-17.6 20-21.7 4-2.4 18.8-9.3 20.5-9.7.9-.1 2.4-.6 3.2-.9 1.8-.6 6.7-1.9 9.5-2.4 1.1-.1 4-.8 6.5-1.3 2.5-.6 6.9-1.1 9.7-1.3 2.9-.1 5.3-.4 5.3-.7 0-.3 15.9-.7 35.3-.7l35.4-.2-.1 38.7zm887.1-261.1c-.1.1-4.5.4-9.7.6-5.2.3-9.5.6-9.5.7 0 .1-2.2.3-5 .4-2.7.2-5.2.5-5.5.6-.3.1-.9.2-1.4.1-.5-.1-1.6.1-2.5.5-.9.4-2.5.8-3.6 1-7.7 1.2-13.5 2.4-15.5 3.1-.8.3-2.2.7-3 .8-.8.1-5.5 1.7-10.5 3.4-4.9 1.8-10 3.5-11.2 3.8-1.3.3-2.3.9-2.3 1.4 0 .5-.6.9-1.4.9-3.8 0-29.9 15.7-37.8 22.7-10.8 9.6-21 21.1-26.6 29.8-4.8 7.6-12.7 26.5-13.8 32.9-.2 1.1-.6 3.9-1 6.1-.4 2.2-.7 6.7-.8 9.9l-.1 6h44.2c49.4.1 45.1.8 46-7.4.9-8.2 6.5-21.2 10-23.3.7-.4 1.3-1.3 1.4-2 0-1.8 10.9-10.5 17.6-14.2 6.8-3.7 15.9-7 21.8-7.9 2.2-.4 5.4-.9 7-1.1 3.8-.6 25.2-.7 28.5-.1 1.4.2 3.6.7 5 1 1.4.3 3.9.9 5.5 1.2 5.2 1.1 14.7 5.4 20.4 9.4 8.9 6 15.6 14.3 19.5 24 1 2.5 2.2 5.3 2.7 6.2.5.9 1.1 3.2 1.4 5 .3 1.8.8 4.4 1 5.8 1 4.6 1.8 19 1.6 25-.1 1.4-.1 3.3-.1 4.2.1 2.3.1 6.3 0 8.5v7.3h-8.2c-22.1 0-79.6 1-82.3 1.4-1.6.3-5.2.8-8 1.1-10 1.2-11.1 1.3-15 2-7 1.1-7.9 1.3-13 2.5-2.7.6-6.1 1.4-7.5 1.6-1.4.3-6.3 1.7-11 3.1-4.7 1.5-9.4 2.8-10.4 3-1.1.2-2.4.7-3 1.1-.6.5-3.3 1.7-6.1 2.7-2.7 1-7.6 3.1-10.7 4.7-3.2 1.5-5.9 2.7-6.1 2.6-.1-.2-.9.3-1.7.9-.8.7-5.1 3.6-9.4 6.5-12 7.8-32.6 29.1-32.6 33.6 0 .7-.4 1.2-.8 1.2-.9 0-10 18.7-10.7 21.8-.2.9-1.1 4.4-2 7.7-.9 3.3-1.8 7.3-2.1 9-.3 1.6-.7 4.1-1 5.5-.3 1.4-.6 9.5-.9 18-.3 15 .5 23.2 3.5 34.5.6 2.2 1.2 4.4 1.3 5 .9 3.3 3 8.7 4.7 12 1.1 2.2 2 4.5 2 5.2 0 .7.3 1.3.8 1.3.4 0 1.8 2.1 3.2 4.7 1.3 2.7 2.7 5 3 5.3.3.3 2.4 3 4.7 6 5.7 7.5 21.7 22.6 26.7 25.2 1.2.6 2.3 1.4 2.6 1.7.7.8 3.8 2.6 13.5 7.7 7.6 4 25.7 10.6 32.1 11.7 1.6.3 5.3 1 8.2 1.6 14.8 3 41.7 3.2 56.7.6 6.7-1.2 16.2-3.5 20.2-4.9 2.2-.8 4.4-1.2 4.7-.9.3.4.6.1.6-.6s.6-1.1 1.4-.8c.8.3 1.6.3 1.8-.1.2-.4 2.8-1.8 5.8-3.2 15-6.8 28.5-16 40.4-27.4 3.8-3.6 7.1-6.5 7.3-6.2.4.4 1.2 3.6 1.9 8.1.9 5.4 5.4 21.9 7.2 26.2 1.5 3.9 4.2 6.6 4.2 4.3 0-.5.9-.6 2.2-.1 1.3.4 3.5.5 5 0 1.6-.4 2.8-.4 2.8 0 0 .5 1.8.5 4 .1s4.3-.4 4.5.1c.3.4 1.9.4 3.5-.1 1.7-.5 3-.6 3-.2 0 .4 2.8.6 6.2.4 8.3-.3 7.8-.3 12.1 0 2.1.2 4.3 0 4.9-.3.6-.4 2.1-.4 3.2.1 1.2.4 3 .4 4.1 0 1.1-.4 2.4-.5 2.9-.2 1.3.7 13.6.8 13.6 0 0-.4 1.2-.3 2.8.1 1.5.5 3.6.5 4.7.1s2.9-.4 3.9 0c1.1.3 3 .5 4.3.2 3-.6 3.1-4.2.2-11.4-3.7-9.3-7.3-21.4-8.5-28.8-.3-1.4-1-5.2-1.5-8.5-2.7-14.6-3.1-31.1-3.4-140-.2-56.7-.6-105-.9-107.5-.3-2.5-.9-5.9-1.2-7.5-.3-1.7-.7-4.1-.9-5.5-.1-1.4-.5-3.2-.8-4-.3-.8-1.2-4-2.2-7-2.5-8.6-7.6-21-8.6-21-.5 0-.9-.9-.9-2s-.4-2-1-2c-.5 0-1-.5-1-1.1 0-1.2-7.3-12.2-10.4-15.8-1.2-1.2-3.8-4.1-5.8-6.3-2.1-2.2-3.8-4.4-3.8-4.9s-.7-.9-1.5-.9c-.7 0-1.8-.6-2.2-1.3-1.1-1.7-10.5-9.4-13.4-11-1.3-.7-4.2-2.4-6.4-3.8-8.6-5.4-30.6-14.5-37.4-15.5-1.9-.2-3.9-.8-4.5-1.1-.6-.4-1.6-.8-2.3-.9-.6-.1-3.5-.7-6.3-1.3-2.8-.6-5.5-.9-6-.6-.5.3-1.1.2-1.4-.3-.2-.4-2.2-.9-4.3-1.1-4.5-.3-8.8-.9-8.8-1.1 0-.4-30.4-1.7-30.8-1.3zm72 224.8c.2 1.1.3 5.6.3 10-.1 4.4-.1 8.6 0 9.2.1 4.1.1 11.3-.1 13.5v3.8c.1 1.4.1 5.1.1 8.3-.1 3.1.2 6.2.5 6.7.3.6.2 1-.3 1-.6 0-.7 1.4-.2 3.5.4 1.9.5 3.5.1 3.5-.3 0-.6 1.8-.6 4s.3 4 .6 4c.9 0-.5 7.1-2 9.8-3.9 7.4-14.7 19.9-21.7 25.2-6.9 5.3-20.8 13.7-23.2 14.1-.4 0-2.2.7-4.1 1.5-7.3 3.1-18.6 5.2-29.7 5.8-3.9.1-7.6.6-8.2 1-.7.4-1.2.3-1.2-.1 0-.5-1.7-.8-3.7-.8-2.1 0-5.6-.3-7.8-.6-2.2-.4-5.4-.9-7.1-1.2-1.7-.3-4.1-1-5.3-1.6-1.1-.7-2.1-.9-2.1-.5 0 .3-1.1-.1-2.5-1-1.3-.9-3.1-1.6-4-1.6-.8 0-1.5-.3-1.5-.8 0-.4-1.5-1.4-3.2-2.1-1.8-.8-6-4.3-9.4-7.7-10.3-10.4-16.4-25.7-15.8-39.9.3-9.6 1.3-17.4 2.4-19.5.6-1.1.8-2 .5-2-.8 0 5.5-12 8.4-16 5.9-7.9 15.3-15.3 25.6-20 8.3-3.8 11.1-4.8 18-6.3 1.1-.3 3.8-1 6-1.5 4.6-1.2 9.9-2.1 17-2.8 2.7-.3 5.1-.6 5.2-.8.2-.1 15.7-.2 34.5-.2 33.3.1 34.1.1 34.5 2.1zM520.6 1242.9c-.6 1.4 0 404 .6 404.6.4.4 3.2.7 6.3.6 7.1-.2 7.4-.2 11.5.1 2 .1 4.2-.1 5-.4.8-.3 2.4-.2 3.5.2s3 .4 4.2-.1c1.2-.5 2.5-.4 2.8 0 .3.5 2 .5 3.9.1s3.7-.5 4-.2c.8.8 7.6.8 7.6 0 0-.4 1.2-.3 2.8 0 3.1.8 7.5.8 8.8-.1.6-.3 1.6-.2 2.3.3.8.4 2.7.4 4.2 0 2-.6 2.9-.5 2.9.3 0 .9.2.9.8.1.4-.7 1.5-.8 2.7-.4 1.1.4 3.2.4 4.8-.1 1.5-.4 2.7-.4 2.7 0s2.1.4 4.6.1l4.7-.5v-201.6c0-110.9-.3-202.1-.6-202.6-.7-1.1-89.6-1.4-90.1-.4z"/></svg>