<?xml version="1.0" encoding="utf-8"?><svg xmlns="http://www.w3.org/2000/svg" xmlns:xlink="http://www.w3.org/1999/xlink"><symbol viewBox="0 0 29 28" id="instagram" xmlns="http://www.w3.org/2000/svg"><path d="M19.031 14a4.3 4.3 0 0 1-1.327 3.094 4.615 4.615 0 0 1-3.204 1.281 4.615 4.615 0 0 1-3.204-1.281A4.3 4.3 0 0 1 9.969 14c0-.25.027-.493.074-.73H8.458v5.83c0 .405.34.733.76.733h10.565a.774.774 0 0 0 .537-.215.721.721 0 0 0 .222-.518v-5.83h-1.585c.047.237.074.48.074.73ZM14.5 16.917c.397 0 .79-.076 1.156-.223.367-.146.7-.361.98-.632s.503-.593.655-.947a2.83 2.83 0 0 0 0-2.233 2.913 2.913 0 0 0-.656-.946 3.032 3.032 0 0 0-.98-.632 3.114 3.114 0 0 0-1.156-.222c-.802 0-1.57.308-2.137.855A2.867 2.867 0 0 0 11.478 14c0 .774.318 1.516.885 2.063a3.077 3.077 0 0 0 2.137.854Zm3.625-5.98h1.811c.12 0 .236-.045.32-.128a.431.431 0 0 0 .135-.309V8.751a.432.432 0 0 0-.133-.31.463.463 0 0 0-.322-.129h-1.811a.463.463 0 0 0-.322.13.432.432 0 0 0-.133.31V10.5a.45.45 0 0 0 .455.438ZM14.5 0C10.654 0 6.966 1.475 4.247 4.1 1.527 6.726 0 10.288 0 14s1.528 7.274 4.247 9.9C6.967 26.524 10.654 28 14.5 28c1.904 0 3.79-.362 5.549-1.066a14.545 14.545 0 0 0 4.704-3.035 13.978 13.978 0 0 0 3.143-4.541A13.584 13.584 0 0 0 29 14c0-1.838-.375-3.659-1.104-5.358a13.978 13.978 0 0 0-3.143-4.541 14.545 14.545 0 0 0-4.704-3.035A14.95 14.95 0 0 0 14.5 0Zm7.552 19.672c0 .89-.755 1.62-1.678 1.62H8.626c-.923 0-1.678-.73-1.678-1.62V8.329c0-.892.755-1.62 1.678-1.62h11.748c.923 0 1.678.729 1.678 1.62v11.343Z"/></symbol></svg>