<?xml version="1.0" standalone="no"?>
<!DOCTYPE svg PUBLIC "-//W3C//DTD SVG 20010904//EN"
 "http://www.w3.org/TR/2001/REC-SVG-20010904/DTD/svg10.dtd">
<svg version="1.0" xmlns="http://www.w3.org/2000/svg"
 width="2752.000000pt" height="2752.000000pt" viewBox="0 0 2752.000000 2752.000000"
 preserveAspectRatio="xMidYMid meet">
<metadata>
Created by potrace 1.14, written by Peter Selinger 2001-2017
</metadata>
<g transform="translate(0.000000,2752.000000) scale(0.100000,-0.100000)"
fill="#000000" stroke="none">
<path d="M5630 16641 c0 -3 -24 -7 -54 -7 -176 -4 -350 -138 -406 -313 -23
-73 -31 -201 -15 -261 3 -14 8 -34 10 -45 8 -37 55 -125 67 -125 6 0 8 -3 5
-6 -16 -17 136 -140 183 -149 10 -2 28 -8 38 -14 71 -38 330 -34 432 6 8 4 17
7 20 7 3 1 30 18 60 37 147 95 221 254 206 439 -19 227 -180 392 -416 425 -24
4 -49 9 -54 12 -5 4 -6 1 -1 -7 5 -8 4 -11 -3 -6 -15 9 -72 15 -72 7z"/>
<path d="M22128 16502 l-458 -2 -1 -23 c0 -12 0 -892 -1 -1954 0 -1063 -2
-1933 -4 -1933 -2 0 -16 21 -31 48 -15 26 -30 49 -33 52 -7 7 -29 42 -37 60
-4 8 -9 17 -12 20 -3 3 -11 14 -18 25 -6 11 -41 67 -78 125 -36 58 -72 114
-78 125 -7 11 -29 45 -49 77 -21 31 -38 61 -38 66 0 4 -8 17 -18 28 -10 10
-21 26 -25 34 -4 8 -16 29 -27 45 -11 17 -27 44 -36 60 -9 17 -20 32 -23 35
-3 3 -15 22 -26 43 -11 20 -23 37 -27 37 -5 0 -8 6 -8 13 0 7 -8 22 -18 33 -9
10 -23 30 -29 44 -7 14 -32 55 -55 92 -24 37 -68 106 -98 155 -30 48 -58 89
-62 91 -4 2 -8 8 -8 13 0 6 -18 37 -40 70 -22 33 -40 62 -40 64 0 2 -48 79
-106 172 -59 92 -117 184 -129 203 -12 19 -54 86 -93 148 -40 62 -72 118 -72
123 0 5 -4 9 -10 9 -5 0 -10 7 -10 15 0 8 -4 15 -10 15 -5 0 -10 7 -10 15 0 8
-4 15 -8 15 -4 0 -13 12 -19 28 -12 27 -33 63 -43 72 -9 8 -204 323 -211 340
-4 9 -14 22 -23 29 -9 7 -16 19 -16 25 0 7 -7 21 -15 31 -27 33 -245 387 -245
396 0 5 -4 9 -10 9 -5 0 -10 7 -10 15 0 8 -4 15 -10 15 -5 0 -10 7 -10 15 0 8
-4 15 -9 15 -5 0 -11 8 -14 18 -7 22 -37 71 -59 96 -10 11 -18 23 -18 27 0 8
-192 316 -210 336 -5 7 -10 14 -10 17 0 6 -125 206 -140 223 -5 7 -10 17 -10
23 0 7 -152 10 -475 10 l-475 0 0 -2729 0 -2729 25 -4 c14 -3 28 -1 31 3 3 5
12 5 22 0 9 -5 26 -5 39 0 12 4 25 4 28 0 3 -5 21 -5 40 -1 19 4 35 5 35 1 0
-3 16 -6 35 -6 19 0 35 3 35 7 0 4 10 4 22 -1 13 -4 35 -5 50 0 16 4 28 5 28
1 0 -4 27 -7 60 -7 33 0 60 3 60 6 0 4 15 4 33 -1 18 -4 42 -4 52 0 11 4 29 4
40 0 11 -4 32 -4 48 1 15 4 27 5 27 1 0 -4 27 -7 60 -7 33 0 60 3 60 6 0 4 15
4 33 0 54 -11 77 -3 77 27 1 15 1 892 1 1950 0 1057 2 1922 3 1922 4 0 30 -40
169 -263 48 -76 87 -140 87 -143 0 -3 5 -10 10 -17 16 -19 110 -167 110 -173
0 -3 11 -20 25 -38 14 -18 22 -36 18 -39 -3 -4 -1 -7 6 -7 7 0 19 -16 27 -35
8 -19 19 -35 24 -35 6 0 10 -5 10 -11 0 -11 116 -200 152 -248 10 -13 15 -27
12 -32 -3 -5 0 -9 6 -9 5 0 18 -16 27 -35 9 -19 20 -35 25 -35 4 0 8 -4 8 -9
0 -6 27 -52 60 -103 33 -51 66 -104 72 -118 7 -14 15 -27 18 -30 3 -3 17 -23
30 -45 13 -22 26 -42 29 -45 10 -9 42 -64 48 -82 3 -10 9 -18 14 -18 5 0 9 -7
9 -15 0 -8 5 -15 10 -15 6 0 10 -6 10 -13 0 -8 9 -22 20 -32 11 -10 20 -23 20
-28 0 -6 27 -52 60 -104 33 -51 60 -96 60 -98 0 -3 5 -11 10 -18 18 -20 111
-167 122 -193 6 -13 15 -24 20 -24 5 0 6 -4 3 -10 -3 -5 -3 -10 2 -10 4 0 28
-34 52 -75 24 -41 50 -80 57 -86 8 -6 14 -17 14 -24 0 -7 9 -23 19 -36 10 -14
27 -39 37 -56 11 -18 60 -97 109 -175 50 -78 93 -149 98 -158 4 -8 20 -34 35
-57 74 -117 188 -295 197 -311 42 -72 71 -119 78 -127 19 -24 87 -135 87 -143
0 -5 9 -17 20 -27 11 -10 20 -22 20 -26 0 -5 17 -35 37 -66 56 -86 62 -96 69
-115 3 -10 10 -18 14 -18 4 0 10 -8 14 -17 3 -10 39 -70 79 -133 63 -98 78
-115 106 -121 17 -4 33 -3 36 1 4 7 64 4 72 -4 3 -2 18 0 34 4 16 5 29 6 29 2
0 -4 27 -7 60 -7 33 0 60 3 60 6 0 4 15 4 33 -1 18 -4 42 -4 52 0 11 4 29 4
40 0 11 -4 32 -4 48 1 15 4 27 5 27 1 0 -4 27 -7 60 -7 33 0 60 3 60 6 0 4 15
4 33 -1 18 -4 42 -4 52 0 11 4 29 4 40 0 11 -4 32 -4 48 1 15 4 27 4 27 0 0
-7 90 -5 97 3 9 9 10 42 1 59 -5 9 -5 17 -1 17 7 0 9 145 3 175 -1 6 -1 15 0
20 3 12 2 257 -1 265 -1 3 0 10 1 15 2 12 2 618 -1 625 -1 3 0 10 1 15 2 12 2
646 0 660 -1 6 -1 15 0 20 3 12 2 925 -1 940 -1 6 0 15 1 20 3 12 2 257 -1
265 -1 3 0 10 1 15 2 12 2 618 -1 625 -1 3 0 10 1 15 2 12 2 646 0 660 -1 6
-1 15 0 20 7 30 1 1018 -6 1023 -5 4 -215 6 -466 4z"/>
<path d="M169 16473 c0 -28 0 -702 1 -715 0 -5 382 -8 849 -8 l849 0 0 -2350
c0 -1293 2 -2353 5 -2357 8 -7 91 -8 103 0 6 3 16 2 23 -3 8 -4 27 -4 42 0 20
6 29 5 29 -3 0 -9 2 -9 8 -1 4 7 15 8 27 4 11 -4 32 -4 48 1 15 4 27 5 27 1 0
-4 63 -7 140 -7 77 0 140 3 140 7 0 4 13 3 29 -2 15 -4 34 -4 41 0 12 7 59 4
68 -5 2 -2 17 1 33 5 16 5 29 6 29 2 0 -4 14 -7 30 -7 17 0 30 3 30 7 0 4 13
3 29 -2 15 -4 34 -4 41 0 10 6 13 476 12 2359 l0 2351 851 0 c468 0 853 3 856
6 3 3 6 172 6 375 l0 369 -2172 0 -2173 0 -1 -27z"/>
<path d="M8548 15175 c-2 -2 -45 -5 -96 -7 -50 -2 -92 -5 -92 -8 0 -3 -12 -6
-27 -7 -89 -5 -293 -57 -361 -92 -9 -5 -55 -28 -102 -51 -135 -68 -249 -151
-372 -272 -21 -21 -38 -40 -38 -43 0 -2 -10 -15 -22 -29 -54 -59 -65 -73 -83
-104 -11 -17 -23 -32 -26 -32 -4 0 -11 -9 -14 -20 -3 -11 -12 -26 -18 -32 -44
-48 -182 -341 -217 -463 -46 -157 -79 -292 -75 -302 2 -7 1 -13 -3 -13 -5 0
-8 -10 -9 -22 -1 -13 -3 -32 -6 -44 -10 -42 -21 -136 -33 -289 -12 -146 -7
-655 6 -655 3 0 6 -18 7 -40 2 -22 5 -52 8 -68 4 -15 8 -45 11 -67 2 -21 6
-48 9 -60 2 -11 12 -51 20 -90 18 -80 52 -201 65 -230 5 -11 14 -38 21 -60 22
-74 146 -337 161 -343 4 -2 8 -8 8 -14 0 -16 125 -193 173 -245 58 -62 157
-162 157 -157 0 3 16 -10 35 -27 19 -18 68 -54 108 -80 39 -27 77 -52 82 -57
6 -4 13 -9 17 -10 20 -6 124 -58 129 -65 3 -5 8 -8 10 -7 5 2 15 -1 94 -28
289 -98 665 -102 953 -10 37 12 69 22 72 23 3 1 22 9 44 18 21 9 42 17 47 17
5 0 9 5 9 11 0 5 5 7 10 4 6 -3 10 -1 10 6 0 7 3 10 6 6 7 -6 108 54 189 114
28 20 83 68 122 108 40 39 75 71 78 71 7 0 -2 -438 -10 -488 -23 -149 -81
-298 -159 -412 -52 -76 -196 -210 -225 -210 -6 0 -11 -5 -11 -11 0 -5 -4 -7
-10 -4 -5 3 -10 2 -10 -3 0 -9 -69 -44 -84 -42 -5 1 -12 -3 -15 -8 -3 -5 -35
-18 -71 -30 -57 -18 -86 -26 -150 -39 -118 -24 -355 -21 -495 6 -100 20 -108
22 -127 32 -10 5 -18 7 -18 3 0 -3 -6 -2 -12 4 -7 6 -16 11 -20 11 -10 2 -33
9 -55 18 -10 3 -21 5 -25 5 -5 -1 -8 3 -8 8 0 5 -3 9 -7 8 -12 -4 -163 75
-163 84 0 4 -6 8 -14 8 -8 0 -21 6 -28 13 -7 7 -35 30 -63 51 -51 38 -172 152
-214 201 l-23 28 -24 -28 c-13 -16 -24 -31 -24 -35 0 -3 -13 -19 -28 -36 -15
-16 -43 -49 -62 -74 -35 -45 -53 -67 -80 -100 -8 -9 -26 -32 -40 -50 -14 -18
-57 -74 -96 -123 l-72 -90 27 -30 c92 -108 138 -155 196 -202 20 -16 43 -35
50 -42 32 -30 315 -197 327 -193 2 1 23 -8 48 -19 90 -39 148 -60 154 -54 3 4
6 2 6 -4 0 -6 12 -13 28 -16 15 -3 45 -11 67 -17 22 -6 100 -25 174 -40 118
-26 167 -33 301 -45 19 -2 37 -4 40 -5 22 -6 336 6 388 14 15 3 47 8 72 11 67
9 100 15 150 26 89 21 114 27 118 29 3 3 11 5 55 14 20 5 40 12 43 17 3 5 11
9 19 9 8 0 26 5 42 12 15 6 33 12 39 13 22 5 210 98 269 133 52 32 82 53 180
127 29 23 175 165 175 171 0 3 14 19 30 37 17 18 33 40 36 50 3 9 9 17 13 17
10 0 106 156 115 188 4 12 12 22 17 22 5 0 9 8 9 18 0 10 3 22 8 26 4 4 7 11
7 14 1 4 8 23 17 42 41 86 89 262 104 380 3 24 7 47 9 51 14 22 18 482 17
2224 0 1084 -1 1979 -1 1991 -1 21 -2 21 -411 21 l-410 0 -1 -21 c-1 -12 -3
-34 -4 -51 -8 -76 -14 -147 -20 -230 -4 -49 -10 -94 -14 -98 -5 -4 -19 8 -32
27 -13 19 -27 32 -31 30 -4 -3 -8 -1 -8 5 0 6 -23 32 -52 58 -28 26 -62 58
-75 71 -13 12 -28 22 -32 22 -4 0 -16 9 -26 20 -10 11 -24 20 -32 20 -7 0 -13
5 -13 10 0 6 -6 10 -14 10 -8 0 -16 4 -18 8 -6 14 -161 89 -233 112 -38 13
-77 26 -85 28 -8 3 -22 7 -30 8 -8 2 -22 5 -30 7 -72 18 -125 25 -245 32 -55
3 -112 7 -127 9 -15 2 -28 3 -30 1z m264 -740 c5 -6 8 -6 8 1 0 7 12 10 28 9
15 -2 52 -6 82 -9 82 -9 108 -14 193 -42 78 -25 182 -77 218 -107 11 -10 22
-17 26 -17 17 0 155 -154 200 -224 l51 -78 1 -888 c1 -930 2 -917 -41 -964
-10 -11 -18 -26 -18 -33 0 -7 -4 -13 -9 -13 -5 0 -12 -8 -15 -17 -8 -25 -129
-153 -144 -153 -7 0 -10 -4 -7 -10 3 -5 -1 -10 -9 -10 -9 0 -16 -3 -16 -7 0
-8 -54 -44 -120 -80 -37 -21 -147 -60 -190 -67 -14 -3 -25 -5 -25 -6 0 -4 -44
-10 -95 -15 -30 -2 -55 -5 -55 -5 0 -4 -161 -5 -169 -1 -5 2 -33 5 -64 8 -30
2 -60 7 -66 11 -6 5 -22 9 -36 10 -13 1 -34 5 -45 10 -11 5 -45 20 -75 33 -62
27 -94 47 -166 104 -48 38 -155 155 -163 178 -2 7 -7 14 -11 17 -20 13 -127
241 -134 281 -1 8 -4 19 -8 24 -6 10 -45 169 -52 215 -3 14 -5 25 -6 25 -2 0
-9 57 -14 108 -2 21 -7 41 -10 44 -3 3 -1 12 5 20 6 7 8 13 3 13 -11 0 -14 63
-13 270 0 238 13 372 50 530 11 47 22 94 24 105 2 11 4 21 5 23 2 1 3 5 4 10
6 27 30 89 37 97 5 5 9 15 9 22 0 14 60 145 71 153 7 6 33 53 34 61 0 3 7 13
15 21 8 9 26 30 39 48 37 48 108 115 154 146 23 16 52 37 65 48 12 11 22 16
22 11 0 -4 8 -1 18 8 9 8 53 28 97 42 91 31 104 34 163 39 24 2 45 6 48 8 9 9
99 3 106 -7z"/>
<path d="M13257 15174 c-1 -1 -33 -5 -72 -8 -111 -9 -160 -17 -163 -27 -2 -5
-8 -7 -12 -4 -12 8 -123 -32 -204 -72 -160 -80 -288 -199 -421 -388 -35 -50
-35 -50 -36 -20 0 17 -2 53 -3 80 -2 28 -7 117 -11 200 -3 82 -8 152 -11 156
-2 3 -196 6 -431 5 l-428 -1 -1 -2025 c0 -1267 3 -2027 9 -2031 5 -4 21 -3 36
1 14 4 35 4 46 0 11 -4 30 -4 42 1 12 5 25 4 28 0 3 -5 20 -5 39 -1 19 4 37 5
40 2 8 -8 76 -8 76 0 0 4 12 3 28 0 31 -8 75 -8 88 1 6 3 16 2 23 -3 8 -4 27
-4 42 0 20 6 29 5 29 -3 0 -9 2 -9 8 -1 4 7 15 8 27 4 11 -4 32 -4 48 1 15 4
27 5 27 1 0 -8 212 -6 245 2 l23 6 0 1383 0 1384 22 44 c50 98 121 186 217
268 57 50 259 140 348 157 22 4 85 13 130 19 112 15 463 0 497 -21 3 -2 10 1
13 7 4 6 9 195 11 420 l3 409 -22 12 c-12 6 -24 11 -27 10 -3 -1 -14 1 -25 3
-47 11 -84 16 -140 21 -33 2 -77 6 -98 7 -20 2 -38 2 -40 1z"/>
<path d="M15597 15173 c-1 -1 -49 -4 -107 -7 -58 -3 -105 -6 -105 -7 0 -2 -54
-8 -97 -11 -21 -1 -38 -5 -38 -8 0 -3 -16 -6 -35 -7 -20 -1 -41 -6 -49 -12 -7
-6 -15 -8 -18 -5 -8 7 -215 -52 -288 -83 -8 -3 -17 -7 -20 -7 -18 -4 -226
-111 -228 -118 -2 -4 -10 -8 -18 -8 -8 0 -14 -4 -14 -10 0 -5 -6 -10 -13 -10
-7 0 -22 -8 -33 -18 -10 -10 -27 -21 -36 -25 -10 -3 -18 -11 -18 -17 0 -5 -6
-10 -13 -10 -7 0 -20 -8 -29 -17 -8 -10 -25 -25 -36 -34 -96 -71 -233 -238
-293 -357 -18 -37 -32 -70 -31 -74 1 -5 -3 -8 -9 -8 -5 0 -7 -4 -4 -10 3 -5 2
-10 -2 -10 -5 0 -9 -8 -10 -17 -1 -10 -7 -31 -14 -48 -23 -57 -45 -171 -48
-250 l-2 -60 445 1 c245 0 448 2 450 5 2 2 7 29 9 59 3 30 10 69 15 85 12 41
52 118 64 126 5 3 9 8 8 10 -4 11 13 38 21 33 5 -3 9 0 9 6 0 10 26 36 99 99
30 26 182 101 213 105 13 2 30 6 38 9 8 4 29 8 45 11 17 2 30 5 30 6 0 10 268
15 320 6 48 -8 85 -16 140 -31 106 -27 251 -133 318 -232 32 -46 76 -148 77
-175 0 -10 4 -18 8 -18 4 0 8 -8 8 -17 0 -10 4 -38 9 -63 4 -25 8 -134 9 -242
l1 -198 -420 -4 c-392 -4 -478 -7 -580 -22 -22 -3 -56 -7 -75 -10 -19 -3 -46
-7 -60 -9 -14 -3 -38 -7 -55 -10 -41 -7 -59 -11 -140 -30 -38 -9 -74 -18 -80
-19 -5 -1 -14 -4 -20 -8 -8 -4 -64 -20 -85 -23 -3 0 -9 -3 -15 -6 -5 -4 -28
-12 -50 -19 -22 -7 -67 -25 -100 -39 -33 -15 -75 -34 -92 -42 -18 -8 -33 -17
-33 -21 0 -5 -5 -8 -11 -8 -13 0 -138 -80 -184 -118 -71 -58 -203 -192 -189
-192 4 0 -3 -8 -14 -19 -12 -10 -22 -23 -22 -30 0 -6 -3 -11 -7 -11 -5 0 -17
-18 -27 -40 -11 -22 -23 -40 -28 -40 -4 0 -7 -3 -6 -7 1 -5 -10 -33 -24 -63
-29 -63 -76 -206 -83 -254 -2 -17 -7 -42 -9 -56 -16 -83 -22 -297 -11 -375 2
-16 6 -46 9 -66 5 -40 33 -153 46 -184 5 -11 19 -42 31 -70 12 -27 23 -56 25
-64 1 -8 9 -18 16 -22 7 -5 9 -9 5 -9 -10 0 80 -134 120 -179 17 -18 35 -38
40 -45 37 -42 150 -139 213 -181 41 -27 77 -53 78 -58 2 -4 8 -5 13 -1 5 3 9
0 9 -6 0 -6 4 -9 9 -5 5 3 12 1 16 -4 5 -8 102 -57 123 -62 4 -1 30 -10 57
-21 59 -24 185 -58 185 -51 0 3 7 0 15 -7 8 -7 15 -10 15 -8 0 3 24 1 53 -4
235 -39 500 -27 707 33 25 7 48 13 53 15 4 1 9 3 12 4 3 1 8 3 13 5 16 4 51
20 132 58 47 22 88 39 93 39 4 -1 7 3 7 8 0 6 7 10 15 10 8 0 15 3 15 8 0 4
13 13 28 20 16 6 37 20 48 30 11 11 25 21 31 23 15 5 110 88 173 151 l48 47 7
-42 c4 -23 9 -51 10 -62 6 -38 47 -189 60 -221 7 -18 12 -34 10 -36 -2 -2 5
-14 15 -28 11 -14 20 -20 20 -13 0 9 7 10 22 4 13 -4 35 -5 50 0 16 4 28 4 28
0 0 -5 18 -5 40 -1 22 4 43 4 45 -1 3 -4 19 -4 35 1 17 5 30 6 30 2 0 -4 28
-6 62 -4 77 3 75 3 118 0 20 -1 42 1 50 4 8 3 24 2 35 -2 11 -4 30 -4 42 1 12
5 25 4 28 0 3 -5 20 -5 39 -1 19 4 37 5 40 2 8 -7 172 -5 185 2 5 3 11 2 13
-3 2 -5 13 -5 26 0 28 10 29 42 3 101 -25 59 -58 155 -67 198 -11 47 -11 50
-14 53 -1 1 -3 11 -5 22 -2 11 -8 47 -13 80 -17 98 -23 155 -28 255 -2 52 -4
95 -5 95 0 0 -2 10 -5 23 -2 13 1 22 9 22 7 0 8 3 2 8 -15 10 -15 425 -1 434
7 5 7 8 1 8 -14 0 -15 230 -1 230 8 0 8 3 1 8 -14 10 -14 235 -1 244 8 5 8 8
1 8 -14 0 -15 140 -1 140 7 0 8 3 1 8 -14 10 -15 225 -1 234 7 5 7 8 1 8 -6 0
-10 125 -10 356 0 196 -3 358 -6 359 -3 2 -5 25 -5 50 1 25 -2 45 -7 45 -4 0
-6 3 -5 8 1 4 -2 32 -7 62 -8 52 -9 60 -15 78 -1 4 -2 10 -1 14 0 4 -4 20 -11
35 -6 15 -12 35 -13 43 -5 43 -121 280 -136 280 -5 0 -9 5 -9 11 0 17 -104
145 -166 204 -61 59 -99 90 -136 113 -16 9 -28 20 -28 24 0 4 -4 8 -10 8 -5 0
-33 15 -62 33 -57 36 -225 111 -273 123 -16 4 -35 10 -40 15 -6 4 -22 10 -35
12 -14 3 -52 12 -85 21 -33 8 -80 18 -104 21 -23 3 -47 8 -52 11 -5 3 -37 7
-71 9 -35 2 -63 5 -63 5 0 5 -294 18 -298 13z m729 -2611 l-1 -387 -47 -70
c-51 -76 -87 -116 -162 -182 -48 -43 -193 -139 -205 -136 -3 1 -14 -6 -23 -14
-10 -9 -18 -13 -18 -8 0 4 -6 3 -12 -2 -18 -14 -137 -52 -170 -55 -16 -1 -28
-5 -28 -9 0 -4 -14 -5 -30 -4 -17 1 -32 -1 -35 -5 -3 -5 -14 -6 -24 -3 -10 3
-28 0 -40 -6 -12 -7 -21 -8 -21 -4 0 4 -16 8 -35 8 -19 0 -35 -4 -35 -8 0 -5
-5 -5 -12 -1 -7 4 -30 8 -52 10 -66 3 -138 14 -158 25 -10 5 -18 7 -18 3 0 -3
-7 -1 -15 6 -8 7 -15 9 -15 6 0 -4 -12 -1 -27 7 -16 8 -46 23 -67 33 -67 32
-171 141 -209 219 -87 174 -84 414 6 575 48 86 130 176 200 217 40 24 188 93
205 97 9 1 24 6 32 9 18 6 67 19 95 24 11 1 40 8 65 13 25 6 69 11 97 13 29 1
53 4 53 7 0 3 159 7 353 7 l354 2 -1 -387z"/>
<path d="M25197 15173 c-1 -1 -45 -4 -97 -6 -52 -3 -95 -6 -95 -7 0 -1 -22 -3
-50 -4 -27 -2 -52 -5 -55 -6 -3 -1 -9 -2 -14 -1 -5 1 -16 -1 -25 -5 -9 -4 -25
-8 -36 -10 -77 -12 -135 -24 -155 -31 -8 -3 -22 -7 -30 -8 -8 -1 -55 -17 -105
-34 -49 -18 -100 -35 -112 -38 -13 -3 -23 -9 -23 -14 0 -5 -6 -9 -14 -9 -38 0
-299 -157 -378 -227 -108 -96 -210 -211 -266 -298 -48 -76 -127 -265 -138
-329 -2 -11 -6 -39 -10 -61 -4 -22 -7 -67 -8 -99 l-1 -60 442 0 c494 -1 451
-8 460 74 9 82 65 212 100 233 7 4 13 13 14 20 0 18 109 105 176 142 68 37
159 70 218 79 22 4 54 9 70 11 38 6 252 7 285 1 14 -2 36 -7 50 -10 14 -3 39
-9 55 -12 52 -11 147 -54 204 -94 89 -60 156 -143 195 -240 10 -25 22 -53 27
-62 5 -9 11 -32 14 -50 3 -18 8 -44 10 -58 10 -46 18 -190 16 -250 -1 -14 -1
-33 -1 -42 1 -23 1 -63 0 -85 0 -10 0 -30 0 -45 l0 -28 -82 0 c-221 0 -796
-10 -823 -14 -16 -3 -52 -8 -80 -11 -100 -12 -111 -13 -150 -20 -70 -11 -79
-13 -130 -25 -27 -6 -61 -14 -75 -16 -14 -3 -63 -17 -110 -31 -47 -15 -94 -28
-104 -30 -11 -2 -24 -7 -30 -11 -6 -5 -33 -17 -61 -27 -27 -10 -76 -31 -107
-47 -32 -15 -59 -27 -61 -26 -1 2 -9 -3 -17 -9 -8 -7 -51 -36 -94 -65 -120
-78 -326 -291 -326 -336 0 -7 -4 -12 -8 -12 -9 0 -100 -187 -107 -218 -2 -9
-11 -44 -20 -77 -9 -33 -18 -73 -21 -90 -3 -16 -7 -41 -10 -55 -3 -14 -6 -95
-9 -180 -3 -150 5 -232 35 -345 6 -22 12 -44 13 -50 9 -33 30 -87 47 -120 11
-22 20 -45 20 -52 0 -7 3 -13 8 -13 4 0 18 -21 32 -47 13 -27 27 -50 30 -53 3
-3 24 -30 47 -60 57 -75 217 -226 267 -252 12 -6 23 -14 26 -17 7 -8 38 -26
135 -77 76 -40 257 -106 321 -117 16 -3 53 -10 82 -16 148 -30 417 -32 567 -6
67 12 162 35 202 49 22 8 44 12 47 9 3 -4 6 -1 6 6 0 7 6 11 14 8 8 -3 16 -3
18 1 2 4 28 18 58 32 150 68 285 160 404 274 38 36 71 65 73 62 4 -4 12 -36
19 -81 9 -54 54 -219 72 -262 15 -39 42 -66 42 -43 0 5 9 6 22 1 13 -4 35 -5
50 0 16 4 28 4 28 0 0 -5 18 -5 40 -1 22 4 43 4 45 -1 3 -4 19 -4 35 1 17 5
30 6 30 2 0 -4 28 -6 62 -4 83 3 78 3 121 0 21 -2 43 0 49 3 6 4 21 4 32 -1
12 -4 30 -4 41 0 11 4 24 5 29 2 13 -7 136 -8 136 0 0 4 12 3 28 -1 15 -5 36
-5 47 -1 11 4 29 4 39 0 11 -3 30 -5 43 -2 30 6 31 42 2 114 -37 93 -73 214
-85 288 -3 14 -10 52 -15 85 -27 146 -31 311 -34 1400 -2 567 -6 1050 -9 1075
-3 25 -9 59 -12 75 -3 17 -7 41 -9 55 -1 14 -5 32 -8 40 -3 8 -12 40 -22 70
-25 86 -76 210 -86 210 -5 0 -9 9 -9 20 0 11 -4 20 -10 20 -5 0 -10 5 -10 11
0 12 -73 122 -104 158 -12 12 -38 41 -58 63 -21 22 -38 44 -38 49 0 5 -7 9
-15 9 -7 0 -18 6 -22 13 -11 17 -105 94 -134 110 -13 7 -42 24 -64 38 -86 54
-306 145 -374 155 -19 2 -39 8 -45 11 -6 4 -16 8 -23 9 -6 1 -35 7 -63 13 -28
6 -55 9 -60 6 -5 -3 -11 -2 -14 3 -2 4 -22 9 -43 11 -45 3 -88 9 -88 11 0 4
-304 17 -308 13z m720 -2248 c2 -11 3 -56 3 -100 -1 -44 -1 -86 0 -92 1 -41 1
-113 -1 -135 0 -7 0 -24 0 -38 1 -14 1 -51 1 -83 -1 -31 2 -62 5 -67 3 -6 2
-10 -3 -10 -6 0 -7 -14 -2 -35 4 -19 5 -35 1 -35 -3 0 -6 -18 -6 -40 0 -22 3
-40 6 -40 9 0 -5 -71 -20 -98 -39 -74 -147 -199 -217 -252 -69 -53 -208 -137
-232 -141 -4 0 -22 -7 -41 -15 -73 -31 -186 -52 -297 -58 -39 -1 -76 -6 -82
-10 -7 -4 -12 -3 -12 1 0 5 -17 8 -37 8 -21 0 -56 3 -78 6 -22 4 -54 9 -71 12
-17 3 -41 10 -53 16 -11 7 -21 9 -21 5 0 -3 -11 1 -25 10 -13 9 -31 16 -40 16
-8 0 -15 3 -15 8 0 4 -15 14 -32 21 -18 8 -60 43 -94 77 -103 104 -164 257
-158 399 3 96 13 174 24 195 6 11 8 20 5 20 -8 0 55 120 84 160 59 79 153 153
256 200 83 38 111 48 180 63 11 3 38 10 60 15 46 12 99 21 170 28 27 3 51 6
52 8 2 1 157 2 345 2 333 -1 341 -1 345 -21z"/>
<path d="M5206 15091 c-6 -14 0 -4040 6 -4046 4 -4 32 -7 63 -6 71 2 74 2 115
-1 20 -1 42 1 50 4 8 3 24 2 35 -2 11 -4 30 -4 42 1 12 5 25 4 28 0 3 -5 20
-5 39 -1 19 4 37 5 40 2 8 -8 76 -8 76 0 0 4 12 3 28 0 31 -8 75 -8 88 1 6 3
16 2 23 -3 8 -4 27 -4 42 0 20 6 29 5 29 -3 0 -9 2 -9 8 -1 4 7 15 8 27 4 11
-4 32 -4 48 1 15 4 27 4 27 0 0 -4 21 -4 46 -1 l47 5 0 2016 c0 1109 -3 2021
-6 2026 -7 11 -896 14 -901 4z"/>
</g>
</svg>
